<svg width="51" height="26" viewBox="0 0 51 26" fill="none" xmlns="http://www.w3.org/2000/svg">
<path d="M24.2196 26H0.603562L12.4116 0.403999L24.2196 26ZM2.69156 24.668H22.1316L12.4116 3.572L2.69156 24.668ZM32.94 0.943999H50.58V2.276H34.272V12.428H48.456V13.76H34.272V24.668H50.58V26H32.94V0.943999Z" fill="white"/>
<path d="M24.2196 26V27H25.7822L25.1276 25.5811L24.2196 26ZM0.603562 26L-0.304472 25.5811L-0.95904 27H0.603562V26ZM12.4116 0.403999L13.3196 -0.0148971L12.4116 -1.98323L11.5035 -0.0148971L12.4116 0.403999ZM2.69156 24.668L1.78333 24.2495L1.12977 25.668H2.69156V24.668ZM22.1316 24.668V25.668H23.6934L23.0398 24.2495L22.1316 24.668ZM12.4116 3.572L13.3198 3.15353L12.4116 1.18233L11.5033 3.15353L12.4116 3.572ZM24.2196 25H0.603562V27H24.2196V25ZM1.5116 26.4189L13.3196 0.822895L11.5035 -0.0148971L-0.304472 25.5811L1.5116 26.4189ZM11.5035 0.822895L23.3115 26.4189L25.1276 25.5811L13.3196 -0.0148971L11.5035 0.822895ZM2.69156 25.668H22.1316V23.668H2.69156V25.668ZM23.0398 24.2495L13.3198 3.15353L11.5033 3.99047L21.2233 25.0865L23.0398 24.2495ZM11.5033 3.15353L1.78333 24.2495L3.59979 25.0865L13.3198 3.99047L11.5033 3.15353ZM32.94 0.943999V-0.0560014H31.94V0.943999H32.94ZM50.58 0.943999H51.58V-0.0560014H50.58V0.943999ZM50.58 2.276V3.276H51.58V2.276H50.58ZM34.272 2.276V1.276H33.272V2.276H34.272ZM34.272 12.428H33.272V13.428H34.272V12.428ZM48.456 12.428H49.456V11.428H48.456V12.428ZM48.456 13.76V14.76H49.456V13.76H48.456ZM34.272 13.76V12.76H33.272V13.76H34.272ZM34.272 24.668H33.272V25.668H34.272V24.668ZM50.58 24.668H51.58V23.668H50.58V24.668ZM50.58 26V27H51.58V26H50.58ZM32.94 26H31.94V27H32.94V26ZM32.94 1.944H50.58V-0.0560014H32.94V1.944ZM49.58 0.943999V2.276H51.58V0.943999H49.58ZM50.58 1.276H34.272V3.276H50.58V1.276ZM33.272 2.276V12.428H35.272V2.276H33.272ZM34.272 13.428H48.456V11.428H34.272V13.428ZM47.456 12.428V13.76H49.456V12.428H47.456ZM48.456 12.76H34.272V14.76H48.456V12.76ZM33.272 13.76V24.668H35.272V13.76H33.272ZM34.272 25.668H50.58V23.668H34.272V25.668ZM49.58 24.668V26H51.58V24.668H49.58ZM50.58 25H32.94V27H50.58V25ZM33.94 26V0.943999H31.94V26H33.94Z" fill="white"/>
</svg>
