<svg width="992" height="69" viewBox="0 0 992 69" fill="none" xmlns="http://www.w3.org/2000/svg">
<path d="M63.7817 69H0.805743L32.2937 0.743998L63.7817 69ZM6.37374 65.448H58.2137L32.2937 9.192L6.37374 65.448ZM89.4362 69V2.184H92.9882V65.448H139.548V69H89.4362ZM214.835 2.184V5.736H189.587V69H186.131V5.736H160.883V2.184H214.835ZM242.601 2.184H289.641V5.736H246.153V32.808H283.977V36.36H246.153V65.448H289.641V69H242.601V2.184ZM357.92 4.392C361.76 6.184 364.768 8.84 366.944 12.36C369.184 15.88 370.304 19.784 370.304 24.072C370.304 29.064 368.768 33.544 365.696 37.512C362.688 41.416 358.816 44.008 354.08 45.288L371.072 69H366.848L350.432 45.96L347.36 46.056H323.264V69H319.712V2.184H345.152C347.968 2.184 350.368 2.376 352.352 2.75999C354.4 3.07999 356.256 3.62399 357.92 4.392ZM348.32 42.504C351.648 42.504 354.72 41.672 357.536 40.008C360.352 38.344 362.592 36.104 364.256 33.288C365.92 30.472 366.752 27.4 366.752 24.072C366.752 20.36 365.76 17 363.776 13.992C361.856 10.984 359.168 8.744 355.712 7.272C353.216 6.248 349.696 5.736 345.152 5.736H323.264V42.504H348.32ZM398.166 2.184H445.206V5.736H401.718V32.808H439.542V36.36H401.718V65.448H445.206V69H398.166V2.184ZM498.317 2.184C503.181 2.184 507.661 3.4 511.757 5.832C515.917 8.264 519.213 11.56 521.645 15.72C524.077 19.816 525.293 24.296 525.293 29.16V42.024C525.293 46.888 524.077 51.4 521.645 55.56C519.213 59.656 515.917 62.92 511.757 65.352C507.661 67.784 503.181 69 498.317 69H473.645V2.184H498.317ZM521.741 29.16C521.741 24.936 520.685 21.032 518.573 17.448C516.461 13.864 513.581 11.016 509.933 8.904C506.349 6.792 502.445 5.736 498.221 5.736H477.197V65.448H498.221C502.445 65.448 506.349 64.392 509.933 62.28C513.581 60.168 516.461 57.32 518.573 53.736C520.685 50.152 521.741 46.248 521.741 42.024V29.16ZM631.514 2.184H678.554V5.736H635.066V32.808H672.89V36.36H635.066V65.448H678.554V69H631.514V2.184ZM763.824 69H700.848L732.336 0.743998L763.824 69ZM706.416 65.448H758.256L732.336 9.192L706.416 65.448ZM824.615 4.392C828.455 6.184 831.463 8.84 833.639 12.36C835.879 15.88 836.999 19.784 836.999 24.072C836.999 29.064 835.463 33.544 832.391 37.512C829.383 41.416 825.511 44.008 820.775 45.288L837.767 69H833.543L817.127 45.96L814.055 46.056H789.959V69H786.407V2.184H811.847C814.663 2.184 817.063 2.376 819.047 2.75999C821.095 3.07999 822.951 3.62399 824.615 4.392ZM815.015 42.504C818.343 42.504 821.415 41.672 824.231 40.008C827.047 38.344 829.287 36.104 830.951 33.288C832.615 30.472 833.447 27.4 833.447 24.072C833.447 20.36 832.455 17 830.471 13.992C828.551 10.984 825.863 8.744 822.407 7.272C819.911 6.248 816.391 5.736 811.847 5.736H789.959V42.504H815.015ZM914.877 2.184V5.736H889.629V69H886.173V5.736H860.925V2.184H914.877ZM939.956 69V2.184H943.508V33.768H987.86V2.184H991.412V69H987.86V37.32H943.508V69H939.956Z" fill="white"/>
</svg>
