<svg width="24" height="27" viewBox="0 0 24 27" fill="none" xmlns="http://www.w3.org/2000/svg">
<path d="M0.0115233 0.907999H23.6275L11.8195 26.504L0.0115233 0.907999ZM11.8195 23.336L21.5755 2.24H2.09952L11.8195 23.336Z" fill="white"/>
<path d="M0.0115233 0.907999V-0.092001H-1.55108L-0.896511 1.3269L0.0115233 0.907999ZM23.6275 0.907999L24.5356 1.3269L25.1901 -0.092001H23.6275V0.907999ZM11.8195 26.504L10.9115 26.9229L11.8195 28.8912L12.7276 26.9229L11.8195 26.504ZM11.8195 23.336L10.9113 23.7545L11.8178 25.722L12.7272 23.7557L11.8195 23.336ZM21.5755 2.24L22.4832 2.65974L23.1397 1.24H21.5755V2.24ZM2.09952 2.24V1.24H0.537731L1.19129 2.65847L2.09952 2.24ZM0.0115233 1.908H23.6275V-0.092001H0.0115233V1.908ZM22.7195 0.489103L10.9115 26.0851L12.7276 26.9229L24.5356 1.3269L22.7195 0.489103ZM12.7276 26.0851L0.919557 0.489103L-0.896511 1.3269L10.9115 26.9229L12.7276 26.0851ZM12.7272 23.7557L22.4832 2.65974L20.6679 1.82025L10.9119 22.9163L12.7272 23.7557ZM21.5755 1.24H2.09952V3.24H21.5755V1.24ZM1.19129 2.65847L10.9113 23.7545L12.7278 22.9175L3.00775 1.82153L1.19129 2.65847Z" fill="white"/>
</svg>
