<svg width="228" height="109" viewBox="0 0 228 109" fill="none" xmlns="http://www.w3.org/2000/svg">
<path d="M82.6015 0.455997V2.824H65.7695V45H63.4655V2.824H46.6335V0.455997H82.6015ZM94.8405 45V0.455997H97.2085V21.512H126.777V0.455997H129.145V45H126.777V23.88H97.2085V45H94.8405ZM144.008 0.455997H175.368V2.824H146.376V20.872H171.592V23.24H146.376V42.632H175.368V45H144.008V0.455997ZM0.0905004 109V64.456H2.4585V85.512H32.0265V64.456H34.3945V109H32.0265V87.88H2.4585V109H0.0905004ZM48.8735 64.456L64.6815 88.264L80.3615 64.456H83.1775L65.8335 90.76V109H63.4655V90.76L46.0575 64.456H48.8735ZM111.545 64.456C114.787 64.456 117.774 65.2667 120.505 66.888C123.278 68.5093 125.475 70.7067 127.097 73.48C128.718 76.2107 129.529 79.1973 129.529 82.44V91.016C129.529 94.2587 128.718 97.2667 127.097 100.04C125.475 102.771 123.278 104.947 120.505 106.568C117.774 108.189 114.787 109 111.545 109H95.0965V64.456H111.545ZM127.161 82.44C127.161 79.624 126.457 77.0213 125.049 74.632C123.641 72.2427 121.721 70.344 119.289 68.936C116.899 67.528 114.297 66.824 111.481 66.824H97.4645V106.632H111.481C114.297 106.632 116.899 105.928 119.289 104.52C121.721 103.112 123.641 101.213 125.049 98.824C126.457 96.4347 127.161 93.832 127.161 91.016V82.44ZM169.032 65.928C171.592 67.1227 173.597 68.8933 175.048 71.24C176.541 73.5867 177.288 76.1893 177.288 79.048C177.288 82.376 176.264 85.3627 174.216 88.008C172.21 90.6107 169.629 92.3387 166.472 93.192L177.8 109H174.984L164.04 93.64L161.992 93.704H145.928V109H143.56V64.456H160.52C162.397 64.456 163.997 64.584 165.32 64.84C166.685 65.0533 167.922 65.416 169.032 65.928ZM162.632 91.336C164.85 91.336 166.898 90.7813 168.776 89.672C170.653 88.5627 172.146 87.0693 173.256 85.192C174.365 83.3147 174.92 81.2667 174.92 79.048C174.92 76.5733 174.258 74.3333 172.936 72.328C171.656 70.3227 169.864 68.8293 167.56 67.848C165.896 67.1653 163.549 66.824 160.52 66.824H145.928V91.336H162.632ZM227.735 109H185.751L206.743 63.496L227.735 109ZM189.463 106.632H224.023L206.743 69.128L189.463 106.632Z" fill="white"/>
<path d="M82.6015 0.455997H83.6015V-0.544003H82.6015V0.455997ZM82.6015 2.824V3.824H83.6015V2.824H82.6015ZM65.7695 2.824V1.824H64.7695V2.824H65.7695ZM65.7695 45V46H66.7695V45H65.7695ZM63.4655 45H62.4655V46H63.4655V45ZM63.4655 2.824H64.4655V1.824H63.4655V2.824ZM46.6335 2.824H45.6335V3.824H46.6335V2.824ZM46.6335 0.455997V-0.544003H45.6335V0.455997H46.6335ZM81.6015 0.455997V2.824H83.6015V0.455997H81.6015ZM82.6015 1.824H65.7695V3.824H82.6015V1.824ZM64.7695 2.824V45H66.7695V2.824H64.7695ZM65.7695 44H63.4655V46H65.7695V44ZM64.4655 45V2.824H62.4655V45H64.4655ZM63.4655 1.824H46.6335V3.824H63.4655V1.824ZM47.6335 2.824V0.455997H45.6335V2.824H47.6335ZM46.6335 1.456H82.6015V-0.544003H46.6335V1.456ZM94.8405 45H93.8405V46H94.8405V45ZM94.8405 0.455997V-0.544003H93.8405V0.455997H94.8405ZM97.2085 0.455997H98.2085V-0.544003H97.2085V0.455997ZM97.2085 21.512H96.2085V22.512H97.2085V21.512ZM126.777 21.512V22.512H127.777V21.512H126.777ZM126.777 0.455997V-0.544003H125.777V0.455997H126.777ZM129.145 0.455997H130.145V-0.544003H129.145V0.455997ZM129.145 45V46H130.145V45H129.145ZM126.777 45H125.777V46H126.777V45ZM126.777 23.88H127.777V22.88H126.777V23.88ZM97.2085 23.88V22.88H96.2085V23.88H97.2085ZM97.2085 45V46H98.2085V45H97.2085ZM95.8405 45V0.455997H93.8405V45H95.8405ZM94.8405 1.456H97.2085V-0.544003H94.8405V1.456ZM96.2085 0.455997V21.512H98.2085V0.455997H96.2085ZM97.2085 22.512H126.777V20.512H97.2085V22.512ZM127.777 21.512V0.455997H125.777V21.512H127.777ZM126.777 1.456H129.145V-0.544003H126.777V1.456ZM128.145 0.455997V45H130.145V0.455997H128.145ZM129.145 44H126.777V46H129.145V44ZM127.777 45V23.88H125.777V45H127.777ZM126.777 22.88H97.2085V24.88H126.777V22.88ZM96.2085 23.88V45H98.2085V23.88H96.2085ZM97.2085 44H94.8405V46H97.2085V44ZM144.008 0.455997V-0.544003H143.008V0.455997H144.008ZM175.368 0.455997H176.368V-0.544003H175.368V0.455997ZM175.368 2.824V3.824H176.368V2.824H175.368ZM146.376 2.824V1.824H145.376V2.824H146.376ZM146.376 20.872H145.376V21.872H146.376V20.872ZM171.592 20.872H172.592V19.872H171.592V20.872ZM171.592 23.24V24.24H172.592V23.24H171.592ZM146.376 23.24V22.24H145.376V23.24H146.376ZM146.376 42.632H145.376V43.632H146.376V42.632ZM175.368 42.632H176.368V41.632H175.368V42.632ZM175.368 45V46H176.368V45H175.368ZM144.008 45H143.008V46H144.008V45ZM144.008 1.456H175.368V-0.544003H144.008V1.456ZM174.368 0.455997V2.824H176.368V0.455997H174.368ZM175.368 1.824H146.376V3.824H175.368V1.824ZM145.376 2.824V20.872H147.376V2.824H145.376ZM146.376 21.872H171.592V19.872H146.376V21.872ZM170.592 20.872V23.24H172.592V20.872H170.592ZM171.592 22.24H146.376V24.24H171.592V22.24ZM145.376 23.24V42.632H147.376V23.24H145.376ZM146.376 43.632H175.368V41.632H146.376V43.632ZM174.368 42.632V45H176.368V42.632H174.368ZM175.368 44H144.008V46H175.368V44ZM145.008 45V0.455997H143.008V45H145.008ZM0.0905004 109H-0.9095V110H0.0905004V109ZM0.0905004 64.456V63.456H-0.9095V64.456H0.0905004ZM2.4585 64.456H3.4585V63.456H2.4585V64.456ZM2.4585 85.512H1.4585V86.512H2.4585V85.512ZM32.0265 85.512V86.512H33.0265V85.512H32.0265ZM32.0265 64.456V63.456H31.0265V64.456H32.0265ZM34.3945 64.456H35.3945V63.456H34.3945V64.456ZM34.3945 109V110H35.3945V109H34.3945ZM32.0265 109H31.0265V110H32.0265V109ZM32.0265 87.88H33.0265V86.88H32.0265V87.88ZM2.4585 87.88V86.88H1.4585V87.88H2.4585ZM2.4585 109V110H3.4585V109H2.4585ZM1.0905 109V64.456H-0.9095V109H1.0905ZM0.0905004 65.456H2.4585V63.456H0.0905004V65.456ZM1.4585 64.456V85.512H3.4585V64.456H1.4585ZM2.4585 86.512H32.0265V84.512H2.4585V86.512ZM33.0265 85.512V64.456H31.0265V85.512H33.0265ZM32.0265 65.456H34.3945V63.456H32.0265V65.456ZM33.3945 64.456V109H35.3945V64.456H33.3945ZM34.3945 108H32.0265V110H34.3945V108ZM33.0265 109V87.88H31.0265V109H33.0265ZM32.0265 86.88H2.4585V88.88H32.0265V86.88ZM1.4585 87.88V109H3.4585V87.88H1.4585ZM2.4585 108H0.0905004V110H2.4585V108ZM48.8735 64.456L49.7066 63.9028L49.4099 63.456H48.8735V64.456ZM64.6815 88.264L63.8484 88.8171L64.6849 90.0769L65.5166 88.814L64.6815 88.264ZM80.3615 64.456V63.456H79.8227L79.5264 63.906L80.3615 64.456ZM83.1775 64.456L84.0124 65.0065L85.0347 63.456H83.1775V64.456ZM65.8335 90.76L64.9986 90.2095L64.8335 90.46V90.76H65.8335ZM65.8335 109V110H66.8335V109H65.8335ZM63.4655 109H62.4655V110H63.4655V109ZM63.4655 90.76H64.4655V90.4591L64.2994 90.2081L63.4655 90.76ZM46.0575 64.456V63.456H44.1965L45.2236 65.0079L46.0575 64.456ZM48.0404 65.0091L63.8484 88.8171L65.5146 87.7109L49.7066 63.9028L48.0404 65.0091ZM65.5166 88.814L81.1966 65.006L79.5264 63.906L63.8464 87.714L65.5166 88.814ZM80.3615 65.456H83.1775V63.456H80.3615V65.456ZM82.3426 63.9055L64.9986 90.2095L66.6684 91.3105L84.0124 65.0065L82.3426 63.9055ZM64.8335 90.76V109H66.8335V90.76H64.8335ZM65.8335 108H63.4655V110H65.8335V108ZM64.4655 109V90.76H62.4655V109H64.4655ZM64.2994 90.2081L46.8914 63.9041L45.2236 65.0079L62.6316 91.3119L64.2994 90.2081ZM46.0575 65.456H48.8735V63.456H46.0575V65.456ZM120.505 66.888L119.994 67.7479L120 67.7513L120.505 66.888ZM127.097 73.48L126.233 73.9847L126.237 73.9905L127.097 73.48ZM127.097 100.04L127.956 100.551L127.96 100.545L127.097 100.04ZM120.505 106.568L120 105.705L119.994 105.708L120.505 106.568ZM95.0965 109H94.0965V110H95.0965V109ZM95.0965 64.456V63.456H94.0965V64.456H95.0965ZM125.049 74.632L124.187 75.1397L124.187 75.1397L125.049 74.632ZM119.289 68.936L118.781 69.7976L118.787 69.8014L119.289 68.936ZM97.4645 66.824V65.824H96.4645V66.824H97.4645ZM97.4645 106.632H96.4645V107.632H97.4645V106.632ZM119.289 104.52L118.787 103.655L118.781 103.658L119.289 104.52ZM125.049 98.824L124.187 98.3163L124.187 98.3163L125.049 98.824ZM111.545 65.456C114.611 65.456 117.421 66.2203 119.994 67.7479L121.015 66.0281C118.126 64.3131 114.963 63.456 111.545 63.456V65.456ZM120 67.7513C122.625 69.2859 124.699 71.3597 126.233 73.9847L127.96 72.9753C126.252 70.0536 123.931 67.7328 121.009 66.0247L120 67.7513ZM126.237 73.9905C127.764 76.5633 128.529 79.373 128.529 82.44H130.529C130.529 79.0216 129.671 75.858 127.956 72.9695L126.237 73.9905ZM128.529 82.44V91.016H130.529V82.44H128.529ZM128.529 91.016C128.529 94.083 127.764 96.9166 126.233 99.5353L127.96 100.545C129.672 97.6167 130.529 94.4343 130.529 91.016H128.529ZM126.237 99.5295C124.703 102.113 122.629 104.168 120 105.705L121.009 107.431C123.927 105.725 126.247 103.429 127.956 100.551L126.237 99.5295ZM119.994 105.708C117.421 107.236 114.611 108 111.545 108V110C114.963 110 118.126 109.143 121.015 107.428L119.994 105.708ZM111.545 108H95.0965V110H111.545V108ZM96.0965 109V64.456H94.0965V109H96.0965ZM95.0965 65.456H111.545V63.456H95.0965V65.456ZM128.161 82.44C128.161 79.4483 127.41 76.6699 125.91 74.1243L124.187 75.1397C125.503 77.3727 126.161 79.7997 126.161 82.44H128.161ZM125.91 74.1243C124.413 71.5846 122.368 69.5636 119.79 68.0706L118.787 69.8014C121.073 71.1244 122.868 72.9007 124.187 75.1397L125.91 74.1243ZM119.796 68.0745C117.251 66.5744 114.472 65.824 111.481 65.824V67.824C114.121 67.824 116.548 68.4816 118.781 69.7975L119.796 68.0745ZM111.481 65.824H97.4645V67.824H111.481V65.824ZM96.4645 66.824V106.632H98.4645V66.824H96.4645ZM97.4645 107.632H111.481V105.632H97.4645V107.632ZM111.481 107.632C114.472 107.632 117.251 106.882 119.796 105.382L118.781 103.658C116.548 104.974 114.121 105.632 111.481 105.632V107.632ZM119.79 105.385C122.368 103.892 124.413 101.871 125.91 99.3317L124.187 98.3163C122.868 100.555 121.073 102.332 118.787 103.655L119.79 105.385ZM125.91 99.3317C127.41 96.7861 128.161 94.0077 128.161 91.016H126.161C126.161 93.6563 125.503 96.0833 124.187 98.3163L125.91 99.3317ZM128.161 91.016V82.44H126.161V91.016H128.161ZM169.032 65.928L169.454 65.0218L169.451 65.02L169.032 65.928ZM175.048 71.24L174.197 71.7659L174.204 71.7769L175.048 71.24ZM174.216 88.008L173.425 87.3958L173.423 87.3977L174.216 88.008ZM166.472 93.192L166.211 92.2266L164.819 92.6027L165.659 93.7745L166.472 93.192ZM177.8 109V110H179.746L178.612 108.418L177.8 109ZM174.984 109L174.169 109.58L174.468 110H174.984V109ZM164.04 93.64L164.854 93.0597L164.543 92.6238L164.008 92.6405L164.04 93.64ZM161.992 93.704V94.704H162.007L162.023 94.7035L161.992 93.704ZM145.928 93.704V92.704H144.928V93.704H145.928ZM145.928 109V110H146.928V109H145.928ZM143.56 109H142.56V110H143.56V109ZM143.56 64.456V63.456H142.56V64.456H143.56ZM165.32 64.84L165.129 65.8218L165.147 65.8252L165.165 65.828L165.32 64.84ZM168.776 89.672L168.267 88.8111L168.267 88.8111L168.776 89.672ZM173.256 85.192L172.395 84.6833L172.395 84.6833L173.256 85.192ZM172.936 72.328L172.093 72.866L172.097 72.8723L172.101 72.8786L172.936 72.328ZM167.56 67.848L167.951 66.9279L167.939 66.9228L167.56 67.848ZM145.928 66.824V65.824H144.928V66.824H145.928ZM145.928 91.336H144.928V92.336H145.928V91.336ZM168.609 66.8342C170.997 67.9485 172.851 69.5891 174.197 71.7658L175.898 70.7142C174.342 68.1976 172.186 66.2968 169.454 65.0218L168.609 66.8342ZM174.204 71.7769C175.592 73.9585 176.288 76.3739 176.288 79.048H178.288C178.288 76.0047 177.49 73.2149 175.891 70.7031L174.204 71.7769ZM176.288 79.048C176.288 82.1531 175.338 84.9247 173.425 87.3958L175.006 88.6202C177.189 85.8006 178.288 82.5989 178.288 79.048H176.288ZM173.423 87.3977C171.551 89.8279 169.156 91.4306 166.211 92.2266L166.732 94.1574C170.102 93.2467 172.869 91.3934 175.008 88.6183L173.423 87.3977ZM165.659 93.7745L176.987 109.582L178.612 108.418L167.284 92.6095L165.659 93.7745ZM177.8 108H174.984V110H177.8V108ZM175.798 108.42L164.854 93.0597L163.225 94.2203L174.169 109.58L175.798 108.42ZM164.008 92.6405L161.96 92.7045L162.023 94.7035L164.071 94.6395L164.008 92.6405ZM161.992 92.704H145.928V94.704H161.992V92.704ZM144.928 93.704V109H146.928V93.704H144.928ZM145.928 108H143.56V110H145.928V108ZM144.56 109V64.456H142.56V109H144.56ZM143.56 65.456H160.52V63.456H143.56V65.456ZM160.52 65.456C162.356 65.456 163.888 65.5816 165.129 65.8218L165.51 63.8582C164.105 63.5864 162.438 63.456 160.52 63.456V65.456ZM165.165 65.828C166.451 66.0289 167.597 66.3675 168.612 66.836L169.451 65.02C168.247 64.4645 166.919 64.0778 165.474 63.852L165.165 65.828ZM162.632 92.336C165.026 92.336 167.25 91.735 169.284 90.5329L168.267 88.8111C166.546 89.8277 164.674 90.336 162.632 90.336V92.336ZM169.284 90.5329C171.307 89.3378 172.921 87.7233 174.116 85.7007L172.395 84.6833C171.371 86.4154 169.999 87.7876 168.267 88.8111L169.284 90.5329ZM174.116 85.7007C175.318 83.6665 175.92 81.4423 175.92 79.048H173.92C173.92 81.091 173.411 82.9628 172.395 84.6833L174.116 85.7007ZM175.92 79.048C175.92 76.3838 175.204 73.9513 173.77 71.7774L172.101 72.8786C173.312 74.7154 173.92 76.7628 173.92 79.048H175.92ZM173.778 71.79C172.384 69.6055 170.43 67.9839 167.951 66.928L167.168 68.768C169.297 69.6748 170.927 71.0398 172.093 72.866L173.778 71.79ZM167.939 66.9228C166.1 66.1682 163.602 65.824 160.52 65.824V67.824C163.496 67.824 165.691 68.1625 167.18 68.7732L167.939 66.9228ZM160.52 65.824H145.928V67.824H160.52V65.824ZM144.928 66.824V91.336H146.928V66.824H144.928ZM145.928 92.336H162.632V90.336H145.928V92.336ZM227.735 109V110H229.297L228.643 108.581L227.735 109ZM185.751 109L184.842 108.581L184.188 110H185.751V109ZM206.743 63.496L207.651 63.0771L206.743 61.1088L205.834 63.0771L206.743 63.496ZM189.463 106.632L188.554 106.214L187.901 107.632H189.463V106.632ZM224.023 106.632V107.632H225.584L224.931 106.214L224.023 106.632ZM206.743 69.128L207.651 68.7095L206.743 66.7383L205.834 68.7095L206.743 69.128ZM227.735 108H185.751V110H227.735V108ZM186.659 109.419L207.651 63.9149L205.834 63.0771L184.842 108.581L186.659 109.419ZM205.834 63.9149L226.826 109.419L228.643 108.581L207.651 63.0771L205.834 63.9149ZM189.463 107.632H224.023V105.632H189.463V107.632ZM224.931 106.214L207.651 68.7095L205.834 69.5465L223.114 107.05L224.931 106.214ZM205.834 68.7095L188.554 106.214L190.371 107.05L207.651 69.5465L205.834 68.7095Z" fill="white"/>
</svg>
