<svg width="628" height="69" viewBox="0 0 628 69" fill="none" xmlns="http://www.w3.org/2000/svg">
<path d="M54.126 2.13126V5.68326H28.878V68.9473H25.422V5.68326H0.174005V2.13126H54.126ZM72.4845 68.9473V2.13126H76.0365V33.7153H120.389V2.13126H123.941V68.9473H120.389V37.2673H76.0365V68.9473H72.4845ZM146.235 2.13126H193.275V5.68326H149.787V32.7553H187.611V36.3073H149.787V65.3953H193.275V68.9473H146.235V2.13126ZM285.672 68.9473V2.13126H289.224V33.7153H333.576V2.13126H337.128V68.9473H333.576V37.2673H289.224V68.9473H285.672ZM358.847 2.13126L382.559 37.8433L406.079 2.13126H410.303L384.287 41.5873V68.9473H380.735V41.5873L354.623 2.13126H358.847ZM452.853 2.13126C457.717 2.13126 462.197 3.34726 466.293 5.77926C470.453 8.21126 473.749 11.5073 476.181 15.6673C478.613 19.7633 479.829 24.2433 479.829 29.1073V41.9713C479.829 46.8353 478.613 51.3473 476.181 55.5073C473.749 59.6033 470.453 62.8673 466.293 65.2993C462.197 67.7313 457.717 68.9473 452.853 68.9473H428.181V2.13126H452.853ZM476.277 29.1073C476.277 24.8833 475.221 20.9793 473.109 17.3953C470.997 13.8113 468.117 10.9633 464.469 8.85126C460.885 6.73926 456.981 5.68326 452.757 5.68326H431.733V65.3953H452.757C456.981 65.3953 460.885 64.3393 464.469 62.2273C468.117 60.1153 470.997 57.2673 473.109 53.6833C475.221 50.0993 476.277 46.1953 476.277 41.9713V29.1073ZM539.084 4.33926C542.924 6.13126 545.932 8.78726 548.108 12.3073C550.348 15.8273 551.468 19.7313 551.468 24.0193C551.468 29.0113 549.932 33.4913 546.86 37.4593C543.852 41.3633 539.98 43.9553 535.244 45.2353L552.236 68.9473H548.012L531.596 45.9073L528.524 46.0033H504.428V68.9473H500.876V2.13126H526.316C529.132 2.13126 531.532 2.32326 533.516 2.70726C535.564 3.02726 537.42 3.57126 539.084 4.33926ZM529.484 42.4513C532.812 42.4513 535.884 41.6193 538.7 39.9553C541.516 38.2913 543.756 36.0513 545.42 33.2353C547.084 30.4193 547.916 27.3473 547.916 24.0193C547.916 20.3073 546.924 16.9473 544.94 13.9393C543.02 10.9313 540.332 8.69127 536.876 7.21926C534.38 6.19526 530.86 5.68326 526.316 5.68326H504.428V42.4513H529.484ZM627.138 68.9473H564.162L595.65 0.691263L627.138 68.9473ZM569.73 65.3953H621.57L595.65 9.13926L569.73 65.3953Z" fill="white"/>
<path d="M54.126 2.13126H55.126V1.13126H54.126V2.13126ZM54.126 5.68326V6.68326H55.126V5.68326H54.126ZM28.878 5.68326V4.68326H27.878V5.68326H28.878ZM28.878 68.9473V69.9473H29.878V68.9473H28.878ZM25.422 68.9473H24.422V69.9473H25.422V68.9473ZM25.422 5.68326H26.422V4.68326H25.422V5.68326ZM0.174005 5.68326H-0.825995V6.68326H0.174005V5.68326ZM0.174005 2.13126V1.13126H-0.825995V2.13126H0.174005ZM53.126 2.13126V5.68326H55.126V2.13126H53.126ZM54.126 4.68326H28.878V6.68326H54.126V4.68326ZM27.878 5.68326V68.9473H29.878V5.68326H27.878ZM28.878 67.9473H25.422V69.9473H28.878V67.9473ZM26.422 68.9473V5.68326H24.422V68.9473H26.422ZM25.422 4.68326H0.174005V6.68326H25.422V4.68326ZM1.17401 5.68326V2.13126H-0.825995V5.68326H1.17401ZM0.174005 3.13126H54.126V1.13126H0.174005V3.13126ZM72.4845 68.9473H71.4845V69.9473H72.4845V68.9473ZM72.4845 2.13126V1.13126H71.4845V2.13126H72.4845ZM76.0365 2.13126H77.0365V1.13126H76.0365V2.13126ZM76.0365 33.7153H75.0365V34.7153H76.0365V33.7153ZM120.389 33.7153V34.7153H121.389V33.7153H120.389ZM120.389 2.13126V1.13126H119.389V2.13126H120.389ZM123.941 2.13126H124.941V1.13126H123.941V2.13126ZM123.941 68.9473V69.9473H124.941V68.9473H123.941ZM120.389 68.9473H119.389V69.9473H120.389V68.9473ZM120.389 37.2673H121.389V36.2673H120.389V37.2673ZM76.0365 37.2673V36.2673H75.0365V37.2673H76.0365ZM76.0365 68.9473V69.9473H77.0365V68.9473H76.0365ZM73.4845 68.9473V2.13126H71.4845V68.9473H73.4845ZM72.4845 3.13126H76.0365V1.13126H72.4845V3.13126ZM75.0365 2.13126V33.7153H77.0365V2.13126H75.0365ZM76.0365 34.7153H120.389V32.7153H76.0365V34.7153ZM121.389 33.7153V2.13126H119.389V33.7153H121.389ZM120.389 3.13126H123.941V1.13126H120.389V3.13126ZM122.941 2.13126V68.9473H124.941V2.13126H122.941ZM123.941 67.9473H120.389V69.9473H123.941V67.9473ZM121.389 68.9473V37.2673H119.389V68.9473H121.389ZM120.389 36.2673H76.0365V38.2673H120.389V36.2673ZM75.0365 37.2673V68.9473H77.0365V37.2673H75.0365ZM76.0365 67.9473H72.4845V69.9473H76.0365V67.9473ZM146.235 2.13126V1.13126H145.235V2.13126H146.235ZM193.275 2.13126H194.275V1.13126H193.275V2.13126ZM193.275 5.68326V6.68326H194.275V5.68326H193.275ZM149.787 5.68326V4.68326H148.787V5.68326H149.787ZM149.787 32.7553H148.787V33.7553H149.787V32.7553ZM187.611 32.7553H188.611V31.7553H187.611V32.7553ZM187.611 36.3073V37.3073H188.611V36.3073H187.611ZM149.787 36.3073V35.3073H148.787V36.3073H149.787ZM149.787 65.3953H148.787V66.3953H149.787V65.3953ZM193.275 65.3953H194.275V64.3953H193.275V65.3953ZM193.275 68.9473V69.9473H194.275V68.9473H193.275ZM146.235 68.9473H145.235V69.9473H146.235V68.9473ZM146.235 3.13126H193.275V1.13126H146.235V3.13126ZM192.275 2.13126V5.68326H194.275V2.13126H192.275ZM193.275 4.68326H149.787V6.68326H193.275V4.68326ZM148.787 5.68326V32.7553H150.787V5.68326H148.787ZM149.787 33.7553H187.611V31.7553H149.787V33.7553ZM186.611 32.7553V36.3073H188.611V32.7553H186.611ZM187.611 35.3073H149.787V37.3073H187.611V35.3073ZM148.787 36.3073V65.3953H150.787V36.3073H148.787ZM149.787 66.3953H193.275V64.3953H149.787V66.3953ZM192.275 65.3953V68.9473H194.275V65.3953H192.275ZM193.275 67.9473H146.235V69.9473H193.275V67.9473ZM147.235 68.9473V2.13126H145.235V68.9473H147.235ZM285.672 68.9473H284.672V69.9473H285.672V68.9473ZM285.672 2.13126V1.13126H284.672V2.13126H285.672ZM289.224 2.13126H290.224V1.13126H289.224V2.13126ZM289.224 33.7153H288.224V34.7153H289.224V33.7153ZM333.576 33.7153V34.7153H334.576V33.7153H333.576ZM333.576 2.13126V1.13126H332.576V2.13126H333.576ZM337.128 2.13126H338.128V1.13126H337.128V2.13126ZM337.128 68.9473V69.9473H338.128V68.9473H337.128ZM333.576 68.9473H332.576V69.9473H333.576V68.9473ZM333.576 37.2673H334.576V36.2673H333.576V37.2673ZM289.224 37.2673V36.2673H288.224V37.2673H289.224ZM289.224 68.9473V69.9473H290.224V68.9473H289.224ZM286.672 68.9473V2.13126H284.672V68.9473H286.672ZM285.672 3.13126H289.224V1.13126H285.672V3.13126ZM288.224 2.13126V33.7153H290.224V2.13126H288.224ZM289.224 34.7153H333.576V32.7153H289.224V34.7153ZM334.576 33.7153V2.13126H332.576V33.7153H334.576ZM333.576 3.13126H337.128V1.13126H333.576V3.13126ZM336.128 2.13126V68.9473H338.128V2.13126H336.128ZM337.128 67.9473H333.576V69.9473H337.128V67.9473ZM334.576 68.9473V37.2673H332.576V68.9473H334.576ZM333.576 36.2673H289.224V38.2673H333.576V36.2673ZM288.224 37.2673V68.9473H290.224V37.2673H288.224ZM289.224 67.9473H285.672V69.9473H289.224V67.9473ZM358.847 2.13126L359.68 1.57811L359.383 1.13126H358.847V2.13126ZM382.559 37.8433L381.725 38.3964L382.562 39.6562L383.394 38.3933L382.559 37.8433ZM406.079 2.13126V1.13126H405.54L405.243 1.58123L406.079 2.13126ZM410.303 2.13126L411.137 2.68174L412.16 1.13126H410.303V2.13126ZM384.287 41.5873L383.452 41.0368L383.287 41.2873V41.5873H384.287ZM384.287 68.9473V69.9473H385.287V68.9473H384.287ZM380.735 68.9473H379.735V69.9473H380.735V68.9473ZM380.735 41.5873H381.735V41.2863L381.568 41.0354L380.735 41.5873ZM354.623 2.13126V1.13126H352.762L353.789 2.68315L354.623 2.13126ZM358.013 2.68441L381.725 38.3964L383.392 37.2901L359.68 1.57811L358.013 2.68441ZM383.394 38.3933L406.914 2.68129L405.243 1.58123L381.723 37.2932L383.394 38.3933ZM406.079 3.13126H410.303V1.13126H406.079V3.13126ZM409.468 1.58079L383.452 41.0368L385.121 42.1377L411.137 2.68174L409.468 1.58079ZM383.287 41.5873V68.9473H385.287V41.5873H383.287ZM384.287 67.9473H380.735V69.9473H384.287V67.9473ZM381.735 68.9473V41.5873H379.735V68.9473H381.735ZM381.568 41.0354L355.456 1.57937L353.789 2.68315L379.901 42.1392L381.568 41.0354ZM354.623 3.13126H358.847V1.13126H354.623V3.13126ZM466.293 5.77926L465.782 6.63914L465.788 6.64256L466.293 5.77926ZM476.181 15.6673L475.318 16.172L475.321 16.1778L476.181 15.6673ZM476.181 55.5073L477.041 56.0178L477.044 56.012L476.181 55.5073ZM466.293 65.2993L465.788 64.4359L465.782 64.4394L466.293 65.2993ZM428.181 68.9473H427.181V69.9473H428.181V68.9473ZM428.181 2.13126V1.13126H427.181V2.13126H428.181ZM473.109 17.3953L472.247 17.903L472.247 17.903L473.109 17.3953ZM464.469 8.85126L463.961 9.71283L463.968 9.71669L464.469 8.85126ZM431.733 5.68326V4.68326H430.733V5.68326H431.733ZM431.733 65.3953H430.733V66.3953H431.733V65.3953ZM464.469 62.2273L463.968 61.3618L463.961 61.3657L464.469 62.2273ZM473.109 53.6833L472.247 53.1756L472.247 53.1756L473.109 53.6833ZM452.853 3.13126C457.541 3.13126 461.844 4.30086 465.782 6.63912L466.804 4.91941C462.55 2.39366 457.893 1.13126 452.853 1.13126V3.13126ZM465.788 6.64256C469.8 8.98783 472.972 12.1603 475.318 16.172L477.044 15.1626C474.526 10.8542 471.106 7.4347 466.798 4.91596L465.788 6.64256ZM475.321 16.1778C477.659 20.1159 478.829 24.419 478.829 29.1073H480.829C480.829 24.0676 479.567 19.4106 477.041 15.1567L475.321 16.1778ZM478.829 29.1073V41.9713H480.829V29.1073H478.829ZM478.829 41.9713C478.829 46.6596 477.659 50.9972 475.318 55.0026L477.044 56.012C479.567 51.6973 480.829 47.0109 480.829 41.9713H478.829ZM475.321 54.9967C472.977 58.9452 469.804 62.0885 465.788 64.436L466.798 66.1626C471.102 63.646 474.521 60.2614 477.041 56.0178L475.321 54.9967ZM465.782 64.4394C461.844 66.7777 457.541 67.9473 452.853 67.9473V69.9473C457.893 69.9473 462.55 68.6849 466.804 66.1591L465.782 64.4394ZM452.853 67.9473H428.181V69.9473H452.853V67.9473ZM429.181 68.9473V2.13126H427.181V68.9473H429.181ZM428.181 3.13126H452.853V1.13126H428.181V3.13126ZM477.277 29.1073C477.277 24.7076 476.175 20.6279 473.971 16.8876L472.247 17.903C474.267 21.3307 475.277 25.0589 475.277 29.1073H477.277ZM473.971 16.8876C471.77 13.1532 468.765 10.1829 464.97 7.98583L463.968 9.71669C467.469 11.7437 470.224 14.4693 472.247 17.903L473.971 16.8876ZM464.977 7.98972C461.236 5.78562 457.157 4.68326 452.757 4.68326V6.68326C456.805 6.68326 460.534 7.69291 463.961 9.7128L464.977 7.98972ZM452.757 4.68326H431.733V6.68326H452.757V4.68326ZM430.733 5.68326V65.3953H432.733V5.68326H430.733ZM431.733 66.3953H452.757V64.3953H431.733V66.3953ZM452.757 66.3953C457.157 66.3953 461.236 65.2929 464.977 63.0888L463.961 61.3657C460.534 63.3856 456.805 64.3953 452.757 64.3953V66.3953ZM464.97 63.0927C468.765 60.8957 471.77 57.9253 473.971 54.191L472.247 53.1756C470.224 56.6092 467.469 59.3349 463.968 61.3618L464.97 63.0927ZM473.971 54.191C476.175 50.4507 477.277 46.3709 477.277 41.9713H475.277C475.277 46.0196 474.267 49.7479 472.247 53.1756L473.971 54.191ZM477.277 41.9713V29.1073H475.277V41.9713H477.277ZM539.084 4.33926L539.506 3.43307L539.503 3.4313L539.084 4.33926ZM548.108 12.3073L547.257 12.8331L547.264 12.8441L548.108 12.3073ZM546.86 37.4593L546.069 36.8471L546.067 36.8489L546.86 37.4593ZM535.244 45.2353L534.983 44.2699L533.591 44.646L534.431 45.8177L535.244 45.2353ZM552.236 68.9473V69.9473H554.182L553.048 68.3648L552.236 68.9473ZM548.012 68.9473L547.197 69.5275L547.496 69.9473H548.012V68.9473ZM531.596 45.9073L532.41 45.327L532.099 44.891L531.564 44.9078L531.596 45.9073ZM528.524 46.0033V47.0033H528.539L528.555 47.0028L528.524 46.0033ZM504.428 46.0033V45.0033H503.428V46.0033H504.428ZM504.428 68.9473V69.9473H505.428V68.9473H504.428ZM500.876 68.9473H499.876V69.9473H500.876V68.9473ZM500.876 2.13126V1.13126H499.876V2.13126H500.876ZM533.516 2.70726L533.325 3.68904L533.343 3.69248L533.361 3.69527L533.516 2.70726ZM538.7 39.9553L538.191 39.0943L538.191 39.0943L538.7 39.9553ZM545.42 33.2353L544.559 32.7265L544.559 32.7265L545.42 33.2353ZM544.94 13.9393L544.097 14.4773L544.101 14.4836L544.105 14.4899L544.94 13.9393ZM536.876 7.21926L537.267 6.29916L537.255 6.2941L536.876 7.21926ZM504.428 5.68326V4.68326H503.428V5.68326H504.428ZM504.428 42.4513H503.428V43.4513H504.428V42.4513ZM538.661 5.24545C542.329 6.95713 545.186 9.483 547.257 12.8331L548.958 11.7814C546.677 8.09152 543.518 5.30539 539.506 3.43308L538.661 5.24545ZM547.264 12.8441C549.399 16.1991 550.468 19.9159 550.468 24.0193H552.468C552.468 19.5466 551.296 15.4555 548.951 11.7704L547.264 12.8441ZM550.468 24.0193C550.468 28.7884 549.006 33.0533 546.069 36.8471L547.65 38.0714C550.857 33.9292 552.468 29.2341 552.468 24.0193H550.468ZM546.067 36.8489C543.192 40.5805 539.506 43.0472 534.983 44.2699L535.504 46.2006C540.453 44.8633 544.511 42.146 547.652 38.0696L546.067 36.8489ZM534.431 45.8177L551.423 69.5297L553.048 68.3648L536.056 44.6528L534.431 45.8177ZM552.236 67.9473H548.012V69.9473H552.236V67.9473ZM548.826 68.367L532.41 45.327L530.781 46.4875L547.197 69.5275L548.826 68.367ZM531.564 44.9078L528.492 45.0038L528.555 47.0028L531.627 46.9068L531.564 44.9078ZM528.524 45.0033H504.428V47.0033H528.524V45.0033ZM503.428 46.0033V68.9473H505.428V46.0033H503.428ZM504.428 67.9473H500.876V69.9473H504.428V67.9473ZM501.876 68.9473V2.13126H499.876V68.9473H501.876ZM500.876 3.13126H526.316V1.13126H500.876V3.13126ZM526.316 3.13126C529.091 3.13126 531.423 3.32084 533.325 3.68904L533.706 1.72548C531.64 1.32568 529.172 1.13126 526.316 1.13126V3.13126ZM533.361 3.69527C535.329 4.00281 537.095 4.52273 538.664 5.24722L539.503 3.4313C537.744 2.61979 535.798 2.05171 533.67 1.71925L533.361 3.69527ZM529.484 43.4513C532.987 43.4513 536.235 42.5729 539.208 40.8162L538.191 39.0943C535.532 40.6656 532.636 41.4513 529.484 41.4513V43.4513ZM539.208 40.8162C542.169 39.0664 544.531 36.7052 546.28 33.744L544.559 32.7265C542.98 35.3973 540.862 37.5162 538.191 39.0943L539.208 40.8162ZM546.28 33.744C548.037 30.7711 548.916 27.5229 548.916 24.0193H546.916C546.916 27.1716 546.13 30.0674 544.559 32.7265L546.28 33.744ZM548.916 24.0193C548.916 20.1178 547.869 16.5652 545.774 13.3887L544.105 14.4899C545.978 17.3293 546.916 20.4968 546.916 24.0193H548.916ZM545.782 13.4012C543.748 10.2141 540.898 7.84582 537.267 6.29924L536.484 8.13929C539.765 9.53671 542.291 11.6484 544.097 14.4773L545.782 13.4012ZM537.255 6.2941C534.584 5.19809 530.913 4.68326 526.316 4.68326V6.68326C530.806 6.68326 534.175 7.19244 536.496 8.14443L537.255 6.2941ZM526.316 4.68326H504.428V6.68326H526.316V4.68326ZM503.428 5.68326V42.4513H505.428V5.68326H503.428ZM504.428 43.4513H529.484V41.4513H504.428V43.4513ZM627.138 68.9473V69.9473H628.701L628.046 68.5284L627.138 68.9473ZM564.162 68.9473L563.254 68.5284L562.599 69.9473H564.162V68.9473ZM595.65 0.691263L596.558 0.272367L595.65 -1.69596L594.742 0.272367L595.65 0.691263ZM569.73 65.3953L568.822 64.9768L568.168 66.3953H569.73V65.3953ZM621.57 65.3953V66.3953H623.132L622.478 64.9768L621.57 65.3953ZM595.65 9.13926L596.558 8.72079L595.65 6.7496L594.742 8.72079L595.65 9.13926ZM627.138 67.9473H564.162V69.9473H627.138V67.9473ZM565.07 69.3662L596.558 1.11016L594.742 0.272367L563.254 68.5284L565.07 69.3662ZM594.742 1.11016L626.23 69.3662L628.046 68.5284L596.558 0.272367L594.742 1.11016ZM569.73 66.3953H621.57V64.3953H569.73V66.3953ZM622.478 64.9768L596.558 8.72079L594.742 9.55773L620.662 65.8137L622.478 64.9768ZM594.742 8.72079L568.822 64.9768L570.638 65.8137L596.558 9.55773L594.742 8.72079Z" fill="white"/>
</svg>
